<svg xmlns="http://www.w3.org/2000/svg" version="1.1" xmlns:xlink="http://www.w3.org/1999/xlink" width="512" height="512" x="0" y="0" viewBox="0 0 24 24" style="enable-background:new 0 0 512 512" xml:space="preserve" class=""><g transform="matrix(1.150000000000001,0,0,1.150000000000001,-1.7999455690384067,-1.8000000357627979)"><path fill="#ed696a" d="M11.86 14H5.5a.5.5 0 0 1-.404-.794l8-11c.323-.445 1.022-.118.889.415l-1.845 7.38h6.36a.5.5 0 0 1 .404.793l-8 11c-.323.445-1.022.118-.89-.415zm.53-9.125L6.483 13H12.5a.5.5 0 0 1 .485.621l-1.376 5.504L17.518 11H11.5a.5.5 0 0 1-.485-.621z" opacity="1" data-original="#000000" class=""></path></g></svg>