<?xml version="1.0" encoding="UTF-8"?>
<svg id="Capa_2" data-name="Capa 2" xmlns="http://www.w3.org/2000/svg" viewBox="0 0 31.48 44.03">
  <defs>
    <style>
      .cls-1 {
        fill: #ed696a;
        stroke-width: 0px;
      }
    </style>
  </defs>
  <g id="Capa_1-2" data-name="Capa 1">
    <rect class="cls-1" x="7.88" y="34.6" width="15.73" height="3.15"/>
    <rect class="cls-1" x="11.02" y="40.89" width="9.44" height="3.15"/>
    <path class="cls-1" d="M15.74,0C7.06,0,.02,7.04.02,15.73c-.22,4.64,1.81,9.09,5.44,11.98,1.57,1.46,2.42,2.3,2.42,3.74h3.15c0-2.89-1.75-4.51-3.44-6.07-2.98-2.29-4.64-5.9-4.42-9.66,0-6.95,5.63-12.58,12.58-12.58s12.58,5.63,12.58,12.58c.22,3.76-1.44,7.37-4.44,9.66-1.68,1.57-3.43,3.15-3.43,6.07h3.15c0-1.45.83-2.28,2.42-3.76,3.63-2.88,5.65-7.34,5.44-11.97C31.47,7.04,24.43,0,15.74,0"/>
  </g>
</svg>