<svg width="55" height="77" viewBox="0 0 55 77" fill="none" xmlns="http://www.w3.org/2000/svg">
<g clip-path="url(#clip0_1_2)">
<path d="M27.501 64.6811V58.5216C29.8636 58.3157 32.0784 57.276 33.7552 55.5857C35.4321 53.8955 36.4636 51.663 36.6679 49.2815H42.7787C42.5811 53.3013 40.908 57.1036 38.0846 59.9496C35.2612 62.7956 31.489 64.4819 27.501 64.6811Z" fill="#2CB8C7"/>
<path d="M27.5068 77.002C20.2159 76.9926 13.2263 74.0691 8.07088 68.8725C2.91545 63.676 0.0150527 56.6306 0.00579834 49.2815C0.170228 43.8779 1.74517 38.6134 4.57182 34.019L24.911 1.34548C25.3999 0.653521 26.1414 0.185594 26.9724 0.0445654C27.8035 -0.0964629 28.6562 0.100963 29.3429 0.593433C29.631 0.800945 29.8831 1.05505 30.089 1.34548L50.3446 33.8564C53.2213 38.4922 54.8301 43.8126 55.0078 49.2776C54.9995 56.6273 52.0996 63.6737 46.9441 68.8711C41.7885 74.0685 34.7984 76.9926 27.5068 77.002ZM27.5068 8.77404L9.83924 37.133C7.56359 40.7815 6.27977 44.9691 6.11652 49.2756C6.11652 54.9937 8.37001 60.4776 12.3813 64.5209C16.3926 68.5641 21.833 70.8357 27.5058 70.8357C33.1786 70.8357 38.6191 68.5641 42.6303 64.5209C46.6416 60.4776 48.8952 54.9937 48.8952 49.2756C48.7218 44.9064 47.4067 40.6609 45.083 36.9685L27.5068 8.77404Z" fill="#2CB8C7"/>
</g>
<defs>
<clipPath id="clip0_1_2">
<rect width="55" height="77" fill="white"/>
</clipPath>
</defs>
</svg>
