<svg xmlns="http://www.w3.org/2000/svg" width="37.583" height="37.579" viewBox="0 0 37.583 37.579">
    <defs>
        <clipPath id="tu126oav5a">
            <path data-name="Rectángulo 110" style="fill:#fff" d="M0 0h37.583v37.579H0z"/>
        </clipPath>
    </defs>
    <g data-name="Grupo 37" style="clip-path:url(#tu126oav5a)">
        <path data-name="Trazado 163" d="m203.018 32.076 5.762-4.318a18.891 18.891 0 0 0-4.592-4.159l-3.7 6.178a11.659 11.659 0 0 1 2.534 2.3" transform="translate(-175.255 -20.628)" style="fill:#fff"/>
        <path data-name="Trazado 164" d="M38 32.08a11.66 11.66 0 0 1 2.534-2.3l-3.7-6.178a18.889 18.889 0 0 0-4.592 4.159z" transform="translate(-28.18 -20.632)" style="fill:#fff"/>
        <path data-name="Trazado 165" d="m230.322 61.036-5.677 4.435a11.549 11.549 0 0 1 1.54 3.061l6.935-1.955a18.73 18.73 0 0 0-2.8-5.541" transform="translate(-196.375 -53.355)" style="fill:#fff"/>
        <path data-name="Trazado 166" d="M169.458 10.115a11.517 11.517 0 0 1 3.189 1.231l3.828-6.1a18.667 18.667 0 0 0-5.775-2.229z" transform="translate(-148.133 -2.637)" style="fill:#fff"/>
        <path data-name="Trazado 167" d="M7.2 115.27a11.611 11.611 0 0 1 .344-2.808l-6.897-2.095A18.815 18.815 0 0 0 0 115.27c0 .433.016.863.045 1.288l7.167-.679q-.016-.3-.016-.609" transform="translate(0 -96.478)" style="fill:#fff"/>
        <path data-name="Trazado 168" d="m73.428 5.245 3.828 6.1a11.517 11.517 0 0 1 3.189-1.231L79.2 3.018a18.67 18.67 0 0 0-5.774 2.227" transform="translate(-64.188 -2.638)" style="fill:#fff"/>
        <path data-name="Trazado 169" d="M216.047 193.088a11.632 11.632 0 0 1-2.071 2.753l4.827 5.345a18.854 18.854 0 0 0 3.747-5z" transform="translate(-187.049 -168.789)" style="fill:#fff"/>
        <path data-name="Trazado 170" d="m23.049 193.084-6.5 3.1a18.857 18.857 0 0 0 3.746 5l4.827-5.345a11.627 11.627 0 0 1-2.07-2.753" transform="translate(-14.464 -168.786)" style="fill:#fff"/>
        <path data-name="Trazado 171" d="M234.29 160.8a11.514 11.514 0 0 1-.928 3.311l6.439 3.23a18.669 18.669 0 0 0 1.674-6.006z" transform="translate(-203.995 -140.564)" style="fill:#fff"/>
        <path data-name="Trazado 172" d="M155.531 236.354a11.555 11.555 0 0 1-3.392.633l-.073 7.2a18.739 18.739 0 0 0 6.156-1.151z" transform="translate(-132.93 -206.611)" style="fill:#fff"/>
        <path data-name="Trazado 173" d="M188.734 219.454a11.592 11.592 0 0 1-2.926 1.824l2.553 6.735a18.8 18.8 0 0 0 5.308-3.313z" transform="translate(-162.426 -191.837)" style="fill:#fff"/>
        <path data-name="Trazado 174" d="m245.625 110.365-6.893 2.095a11.614 11.614 0 0 1 .344 2.809q0 .306-.016.609l7.167.679c.029-.426.045-.855.045-1.288a18.812 18.812 0 0 0-.648-4.9" transform="translate(-208.689 -96.476)" style="fill:#fff"/>
        <path data-name="Trazado 175" d="M126.129 7.323a11.617 11.617 0 0 1 3.418 0l1.384-7.068a18.9 18.9 0 0 0-6.186 0z" transform="translate(-109.047)" style="fill:#fff"/>
        <path data-name="Trazado 176" d="M103.743 236.984a11.553 11.553 0 0 1-3.392-.633l-2.691 6.685a18.737 18.737 0 0 0 6.156 1.151z" transform="translate(-85.371 -206.608)" style="fill:#fff"/>
        <path data-name="Trazado 177" d="M8.936 164.11a11.511 11.511 0 0 1-.927-3.311l-7.185.535A18.664 18.664 0 0 0 2.5 167.34z" transform="translate(-.719 -140.564)" style="fill:#fff"/>
        <path data-name="Trazado 178" d="M13.6 68.537a11.55 11.55 0 0 1 1.539-3.061L9.466 61.04a18.725 18.725 0 0 0-2.8 5.541z" transform="translate(-5.83 -53.359)" style="fill:#fff"/>
        <path data-name="Trazado 179" d="M58.229 221.274a11.592 11.592 0 0 1-2.929-1.824l-4.932 5.25a18.8 18.8 0 0 0 5.308 3.313z" transform="translate(-44.03 -191.834)" style="fill:#fff"/>
    </g>
</svg>
