<?xml version="1.0" encoding="UTF-8"?>
<svg xmlns="http://www.w3.org/2000/svg" version="1.1" viewBox="0 0 199.5 293.8">
  <defs>
    <style>
      .cls-1 {
        fill: #ed696a;
      }
    </style>
  </defs>
  <!-- Generator: Adobe Illustrator 28.7.1, SVG Export Plug-In . SVG Version: 1.2.0 Build 142)  -->
  <g>
    <g id="Capa_2">
      <g id="Capa_1-2">
        <path class="cls-1" d="M10.8,157.4h50.7l-19.1,124.4c-.7,4.7,1.9,9.4,6.3,11.2,1.3.5,2.7.8,4.1.8,3.3-.1,6.4-1.9,8.3-4.6L197.5,110.8c2.2-3,2.7-7,1.1-10.5-1.8-3.6-5.4-5.9-9.4-5.9h-49.8l18.1-81.6c.7-3.1,0-6.4-2.1-8.9C153.4,1.4,150.4,0,147.2,0H42.3c-5-.1-9.4,3.2-10.5,8.1L.3,144.5c-.2.9-.3,1.8-.3,2.7.2,5.8,5,10.4,10.8,10.2h0ZM50.7,21h83.4l-21,94.4h55.1l-98.8,128.9,16.7-107.9H24L50.7,21Z"/>
      </g>
    </g>
  </g>
</svg>